<svg xmlns="http://www.w3.org/2000/svg" viewBox="0 0 151.44 151.44" id="instagram"><g data-name="Layer 2"><g data-name="Colored icon"><circle cx="75.76" cy="75.71" r="64.59" fill="#e8e8e8"></circle><circle cx="75.76" cy="75.71" r="64.59" fill="#e8e8e8"></circle><g style="mix-blend-mode:multiply"><path fill="#3b739b" d="M94,95.43H57.55A1.52,1.52,0,0,1,56,93.92V71.15H62.1a9.27,9.27,0,0,0-1.05,4.61,14.77,14.77,0,0,0,29.54,0c0-1.35-.19-3.44-1.17-4.61h6.07V93.92A1.52,1.52,0,0,1,94,95.43m-18.15-29a9.32,9.32,0,1,1-9.34,9.31,9.33,9.33,0,0,1,9.34-9.31m12.08-9h4.55A1.52,1.52,0,0,1,94,59v4.56a1.52,1.52,0,0,1-1.52,1.51H87.9a1.52,1.52,0,0,1-1.52-1.51V59A1.52,1.52,0,0,1,87.9,57.5m6.37-6.07h-37a5.77,5.77,0,0,0-5.77,5.76v37A5.76,5.76,0,0,0,57.25,100h37A5.76,5.76,0,0,0,100,94.23v-37a5.76,5.76,0,0,0-5.77-5.76" data-name="Instagram"></path></g></g></g></svg>