<svg xmlns="http://www.w3.org/2000/svg" viewBox="0 0 151.44 151.44" id="snapchat"><g data-name="Layer 2"><g data-name="Colored icon"><circle cx="75.73" cy="75.82" r="64.59" fill="#e8e8e8"></circle><circle cx="75.73" cy="75.82" r="64.59" fill="#e8e8e8"></circle><g><path fill="#f8f619" d="M76.28,49H75.16a16.68,16.68,0,0,0-6.55,1.38,14.77,14.77,0,0,0-4.17,2.76,15.81,15.81,0,0,0-3.49,5c-1.28,2.86-1,7.68-.73,11.55h0c0,.41.06.84.08,1.27a2.37,2.37,0,0,1-.94.17,6.27,6.27,0,0,1-2.55-.68,2.3,2.3,0,0,0-1-.2,3.4,3.4,0,0,0-1.71.48,2.33,2.33,0,0,0-1.21,1.55,2.1,2.1,0,0,0,.81,2,6.87,6.87,0,0,0,2.13,1.22c.25.1.53.19.84.29,1.06.33,2.66.84,3.08,1.82a2.39,2.39,0,0,1-.27,1.95l0,.06a18.83,18.83,0,0,1-2.88,4.46,15.83,15.83,0,0,1-3.48,3.07,12.75,12.75,0,0,1-4.88,1.9,1.33,1.33,0,0,0-1.12,1.4,1.76,1.76,0,0,0,.14.58h0A3.58,3.58,0,0,0,49.2,92.7a22.59,22.59,0,0,0,5.59,1.46,5.61,5.61,0,0,1,.34,1.23c.1.43.2.87.33,1.34A1.47,1.47,0,0,0,57,97.85a7.12,7.12,0,0,0,1.31-.19,15.29,15.29,0,0,1,3-.34,13.37,13.37,0,0,1,2.15.18,10.41,10.41,0,0,1,4,2.07c2,1.45,4.36,3.08,7.9,3.08h.71c3.54,0,5.86-1.63,7.9-3.07h0a10.41,10.41,0,0,1,4-2.07,13.27,13.27,0,0,1,2.15-.18,15.4,15.4,0,0,1,3,.32,7.11,7.11,0,0,0,1.32.16h.07A1.44,1.44,0,0,0,96,96.7c.14-.46.24-.89.33-1.32a8.16,8.16,0,0,1,.34-1.23,21.71,21.71,0,0,0,5.6-1.46A3.57,3.57,0,0,0,104.21,91a1.75,1.75,0,0,0,.14-.59,1.34,1.34,0,0,0-1.12-1.39C95.58,87.8,92.13,80,92,79.63l0-.06a2.39,2.39,0,0,1-.27-1.95c.41-1,2-1.49,3.08-1.82.31-.1.59-.19.84-.29a6.37,6.37,0,0,0,2.28-1.36,2.12,2.12,0,0,0,.69-1.56,2.45,2.45,0,0,0-1.83-2.13,3.43,3.43,0,0,0-1.25-.24,2.73,2.73,0,0,0-1.16.24,6.58,6.58,0,0,1-2.38.68,2,2,0,0,1-.79-.18c0-.35,0-.72.07-1.1v-.17c.24-3.87.55-8.69-.73-11.55a15.68,15.68,0,0,0-3.51-5,14.82,14.82,0,0,0-4.18-2.76A16.77,16.77,0,0,0,76.28,49" data-name="Snapchat"></path></g></g></g></svg>