<svg xmlns="http://www.w3.org/2000/svg" viewBox="0 0 151.44 151.44" id="spotify"><g data-name="Layer 2"><g data-name="Colored icon"><circle cx="75.79" cy="75.79" r="64.59" fill="#e8e8e8"></circle><circle cx="75.79" cy="75.79" r="64.59" fill="#e8e8e8"></circle><g><path fill="#1d9848" d="M91.65,72.83c-8.6-5.11-23-5.65-31.19-3.09A2.47,2.47,0,1,1,59,65c9.54-2.82,25.28-2.28,35.23,3.63a2.61,2.61,0,0,1,.94,3.5,2.83,2.83,0,0,1-3.5.67m-.27,7.53a2,2,0,0,1-2.82.68c-7.26-4.44-18.29-5.79-26.76-3.1A2,2,0,1,1,60.59,74c9.82-3,21.92-1.48,30.26,3.63a1.9,1.9,0,0,1,.53,2.69m-3.22,7.4a1.61,1.61,0,0,1-2.29.54c-6.32-3.9-14.25-4.71-23.67-2.56a1.66,1.66,0,0,1-.8-3.23c10.22-2.28,19.09-1.34,26.08,3a1.61,1.61,0,0,1,.68,2.29M75.79,48.9a26.9,26.9,0,1,0,26.89,26.89A27,27,0,0,0,75.79,48.9" data-name="Spotify"></path></g></g></g></svg>