<svg xmlns="http://www.w3.org/2000/svg" viewBox="0 0 151.2 151.2" id="twitter"><g data-name="Layer 2"><g data-name="Colored icon"><circle cx="75.66" cy="75.54" r="64.5" fill="#e8e8e8"></circle><circle cx="75.66" cy="75.54" r="64.5" fill="#e8e8e8"></circle><path fill="#1ca3c9" style="mix-blend-mode:multiply" d="M111.22,53.48a29.14,29.14,0,0,1-8.38,2.3,14.69,14.69,0,0,0,6.42-8.07A29.46,29.46,0,0,1,100,51.25a14.6,14.6,0,0,0-24.86,13.3A41.35,41.35,0,0,1,45.06,49.31a14.6,14.6,0,0,0,4.51,19.48A14.45,14.45,0,0,1,43,67a1.28,1.28,0,0,0,0,.19,14.59,14.59,0,0,0,11.71,14.3,14.31,14.31,0,0,1-6.59.25A14.61,14.61,0,0,0,61.71,91.84a29.31,29.31,0,0,1-18.12,6.24,30.69,30.69,0,0,1-3.48-.2,41.25,41.25,0,0,0,22.36,6.55C89.31,104.43,104,82.2,104,62.92c0-.63,0-1.26,0-1.89A29.53,29.53,0,0,0,111.22,53.48Z"></path></g></g></svg>